<?xml version="1.0"?>
<svg xmlns="http://www.w3.org/2000/svg"
width="6cm" height="4cm" viewBox="0 0 600 400"
 viewport-fill="rgb(255,150,200)">

<path id="ve" vector-effect="non-scaling-size"
 stroke="red" stroke-width="3" fill="none"
 transform="matrix(1,0,0,1,150,150)"
 d="M-50,-50 L50,-50 50,-100 150,0 50,100 50,50 -50,50 -50,-50z M5 0 L0 -5 -5 0 0 5z"/>

<path id="ve" vector-effect="non-rotation"
 stroke="red" stroke-width="3" fill="none"
 transform="matrix(1,0,0,1,150,150)"
 d="M-50,-50 L50,-50 50,-100 150,0 50,100 50,50 -50,50 -50,-50z M5 0 L0 -5 -5 0 0 5z"/>

<path id="ve" vector-effect="non-scaling-size non-rotation"
 stroke="red" stroke-width="3" fill="none"
 transform="matrix(1,0,0,1,150,150)"
 d="M-50,-50 L50,-50 50,-100 150,0 50,100 50,50 -50,50 -50,-50z M5 0 L0 -5 -5 0 0 5z"/>

<path id="ve" vector-effect="fixed-position"
 stroke="red" stroke-width="3" fill="none"
 transform="matrix(1,0,0,1,150,150)"
 d="M-50,-50 L50,-50 50,-100 150,0 50,100 50,50 -50,50 -50,-50z M5 0 L0 -5 -5 0 0 5z"/>

<path id="ve" vector-effect="non-scaling-size fixed-position"
 stroke="red" stroke-width="3" fill="none"
 transform="matrix(1,0,0,1,150,150)"
 d="M-50,-50 L50,-50 50,-100 150,0 50,100 50,50 -50,50 -50,-50z M5 0 L0 -5 -5 0 0 5z"/>

<path id="ve" vector-effect="non-rotation fixed-position"
 stroke="red" stroke-width="3" fill="none"
 transform="matrix(1,0,0,1,150,150)"
 d="M-50,-50 L50,-50 50,-100 150,0 50,100 50,50 -50,50 -50,-50z M5 0 L0 -5 -5 0 0 5z"/>

<path id="ve" vector-effect="non-scaling-size non-rotation fixed-position"
 stroke="red" stroke-width="3" fill="none"
 transform="matrix(1,0,0,1,150,150)"
 d="M-50,-50 L50,-50 50,-100 150,0 50,100 50,50 -50,50 -50,-50z M5 0 L0 -5 -5 0 0 5z"/>

</svg>
